# xmcd
#
# Track frame offsets: 
#        150
#        15735
#        35477
#        55748
#        72194
#        89373
#        103397
#        125450
#        148810
#        172902
#
# Disc length: 2902 seconds
#
# Revision: 0
# Processed by: cddbd v1.5.2PL0 Copyright (c) Steve Scherf et al.
# Submitted via: ExactAudioCopy v0.95b4
#
DISCID=890b540a
DTITLE=Corrina Steel - Blues Is A Good Woman Gone Bad
DYEAR=2006
DGENRE=Blues
TTITLE0=Bartenders Fool
TTITLE1=Darker Side To Me
TTITLE2=Blues Is A Good Woman Gone Bad
TTITLE3=Highway Girl
TTITLE4=All Or Nothing
TTITLE5=Lord Help The Poor And Needy
TTITLE6=Beautiful World
TTITLE7=I Can't Stop Loving You
TTITLE8=Evening Star
TTITLE9=Hard Times For The Working Man
EXTD=
EXTT0=
EXTT1=
EXTT2=
EXTT3=
EXTT4=
EXTT5=
EXTT6=
EXTT7=
EXTT8=
EXTT9=
PLAYORDER=
